<?xml version="1.0" encoding="UTF-8" standalone="no"?>
<svg width="84px" height="101px" viewBox="0 0 84 101" version="1.1" xmlns="http://www.w3.org/2000/svg" xmlns:xlink="http://www.w3.org/1999/xlink">
    <!-- Generator: Sketch 3.8.3 (29802) - http://www.bohemiancoding.com/sketch -->
    <title>income_now_color</title>
    <desc>Created with Sketch.</desc>
    <defs>
        <polygon id="path-1" points="83.9769212 100.151261 83.9769212 0.592759664 0.000678787879 0.592759664 0.000678787879 100.151261"></polygon>
    </defs>
    <g id="START-SEQUENCE" stroke="none" stroke-width="1" fill="none" fill-rule="evenodd">
        <g id="-hovericons" transform="translate(-270.000000, -312.000000)">
            <g id="Group" transform="translate(193.000000, 266.000000)">
                <g id="income_now" transform="translate(77.000000, 46.000000)">
                    <g id="income_now_color" transform="translate(0.000000, 0.256489)">
                        <mask id="mask-2" fill="white">
                            <use xlink:href="#path-1"></use>
                        </mask>
                        <g id="Clip-2"></g>
                        <path d="M41.9888,97.040121 C20.5526788,97.040121 3.10952727,79.5934319 3.10952727,58.1491798 C3.10952727,36.7066252 20.5526788,19.2599361 41.9888,19.2599361 C63.4249212,19.2599361 80.8680727,36.7066252 80.8680727,58.1491798 C80.8680727,79.5934319 63.4249212,97.040121 41.9888,97.040121 L41.9888,97.040121 Z M31.8799515,9.92719664 L36.5449212,9.92719664 L36.5449212,3.70423866 L31.8799515,3.70423866 L31.8799515,9.92719664 Z M47.4326788,9.92549916 L52.0976485,9.92549916 L52.0976485,3.70254118 L47.4326788,3.70254118 L47.4326788,9.92549916 Z M39.6571636,9.92719664 L44.3221333,9.92719664 L44.3221333,3.70423866 L39.6571636,3.70423866 L39.6571636,9.92719664 Z M43.5432242,13.0369782 L53.6520727,13.0369782 C54.5124364,13.0369782 55.2081939,12.3427092 55.2081939,11.4820874 L55.2081939,2.14765042 C55.2081939,1.28702857 54.5124364,0.592759664 53.6520727,0.592759664 L30.3255273,0.592759664 C29.4651636,0.592759664 28.771103,1.28702857 28.771103,2.14765042 L28.771103,11.4820874 C28.771103,12.3427092 29.4651636,13.0369782 30.3255273,13.0369782 L40.4343758,13.0369782 L40.4343758,16.2265412 C18.0055273,17.0532134 0.000678787879,35.5166924 0.000678787879,58.1491798 C0.000678787879,81.3095832 18.8370424,100.1516 41.9888,100.1516 C65.1405576,100.1516 83.9769212,81.3095832 83.9769212,58.1491798 C83.9769212,35.5166924 65.9720727,17.0532134 43.5432242,16.2265412 L43.5432242,13.0369782 Z" id="Fill-1" fill="#179FD9" mask="url(#mask-2)"></path>
                        <path d="M68.1151758,13.2123277 L73.4487515,16.4154706 L71.8468121,19.085605 L66.5132364,15.8807647 L68.1151758,13.2123277 Z M71.5803879,22.5501597 C71.8298424,22.7012353 72.1064485,22.7691345 72.3796606,22.7691345 C72.9074182,22.7691345 73.4216,22.5026303 73.7134788,22.0154538 L76.9173576,16.6785798 C77.1277818,16.3288992 77.1905697,15.9062269 77.0904485,15.5073193 C76.9920242,15.1033193 76.7357818,14.7587311 76.3811152,14.5482437 L68.3816,9.74607563 C67.6468121,9.29794118 66.6897212,9.54237815 66.2485091,10.2807815 L63.0463273,15.6193529 C62.835903,15.9690336 62.7714182,16.3917059 62.8715394,16.7906134 C62.9716606,17.192916 63.2262061,17.5392017 63.5808727,17.7479916 L71.5803879,22.5501597 Z" id="Fill-4" fill="#179FD9" mask="url(#mask-2)"></path>
                        <path d="M41.9888,87.706363 C25.6961939,87.706363 12.4411636,74.4456571 12.4411636,58.1498588 C12.4411636,41.855758 25.6961939,28.5933546 41.9888,28.5933546 C58.2814061,28.5933546 71.5364364,41.855758 71.5364364,58.1498588 C71.5364364,74.4456571 58.2814061,87.706363 41.9888,87.706363 M41.9888,25.4818756 C23.9805576,25.4818756 9.33061818,40.1345143 9.33061818,58.1498588 C9.33061818,76.1652034 23.9805576,90.817842 41.9888,90.817842 C59.9970424,90.817842 74.6469818,76.1652034 74.6469818,58.1498588 C74.6469818,40.1345143 59.9970424,25.4818756 41.9888,25.4818756" id="Fill-6" fill="#179FD9" mask="url(#mask-2)"></path>
                        <path d="M43.6911462,60.508782 C44.4145504,60.7888095 45.0096088,61.1388438 45.4413178,61.558885 C45.8846946,61.9672584 46.1180508,62.5156454 46.1180508,63.2157141 C46.1180508,65.070896 45.1262869,66.179338 43.1077557,66.5410401 L43.6911462,60.508782 Z M40.867536,54.289839 C40.1207962,53.9631403 39.5257378,53.6014382 39.0706932,53.1580614 C38.6039808,52.7146846 38.3822924,52.131294 38.3822924,51.4312254 C38.3822924,51.1045267 38.4406314,50.8011636 38.5573095,50.5211362 C38.650652,50.2294409 38.837337,49.9727491 39.0706932,49.7393929 C39.3157172,49.5177045 39.6190803,49.3193517 40.0157859,49.1443345 C40.377488,48.992653 40.8442004,48.8643071 41.4159231,48.7709646 L40.867536,54.289839 Z M38.1022649,44.8389124 C37.0171585,45.3056249 36.1070693,45.9240188 35.3486616,46.6590909 C34.6135896,47.3824951 34.0418668,48.1992419 33.6451613,49.1093311 C33.2484557,50.0544238 33.0734386,50.9878486 33.0734386,51.9446091 C33.0734386,53.2514039 33.2834592,54.3365102 33.7151682,55.1999282 C34.1468771,56.0633462 34.7069321,56.7867505 35.3953329,57.3468054 C36.0954015,57.9068603 36.8771448,58.3385693 37.728895,58.6769358 C38.592313,59.0036345 39.4673988,59.2836619 40.3424846,59.5286859 L39.6657515,66.424362 C39.1056966,66.2726805 38.6273164,66.0976633 38.1956074,65.8643071 C37.787234,65.6309509 37.3905285,65.4325981 37.0404942,65.1992419 C36.6671242,64.9892213 36.3287577,64.7908685 36.0370625,64.639187 C35.7336994,64.4991732 35.4420041,64.4174986 35.138641,64.4174986 C34.8702814,64.4174986 34.6019218,64.4875054 34.3452299,64.639187 C34.1002059,64.7675329 33.8901853,64.94255 33.7501716,65.1525706 L32,67.6728177 C32.8867536,68.5129001 33.9601922,69.2013009 35.2203157,69.7730236 C36.4921071,70.3564142 37.8339053,70.7531197 39.2223747,70.9748081 L38.8723404,74.7435109 L40.9375429,74.7435109 C41.3692519,74.7435109 41.7192862,74.5918294 41.975978,74.3351376 C42.2443377,74.0551101 42.407687,73.751747 42.4310226,73.4017127 L42.6527111,71.1264896 C44.0645161,71.0214794 45.3246397,70.7181163 46.3980782,70.2280682 C47.4948524,69.7263524 48.4282773,69.0962906 49.186685,68.3145473 C49.9334248,67.5561396 50.5051476,66.6460504 50.8901853,65.6192831 C51.2868909,64.6158513 51.4735758,63.530745 51.4735758,62.3756317 C51.4735758,61.6055562 51.3685655,60.9171554 51.1935484,60.3220971 C50.9835278,59.7387065 50.726836,59.1903194 50.3768016,58.7352748 C50.0384351,58.2802302 49.618394,57.860189 49.1516815,57.5334903 C48.6849691,57.1951238 48.1832533,56.8917608 47.646534,56.6234011 C47.0981469,56.3667093 46.5264242,56.1333531 45.9430336,55.9350003 C45.3829787,55.7249797 44.7995882,55.5382947 44.2161977,55.3749454 L44.8345916,48.9109783 C45.2196294,49.0276564 45.5813315,49.1443345 45.8963624,49.2843483 C46.2463967,49.4360298 46.5614276,49.5760435 46.841455,49.7043894 C47.1448181,49.8327354 47.40151,49.9377457 47.6582018,50.0194203 C47.891558,50.0894272 48.1132464,50.1360984 48.3115992,50.1360984 C48.5916266,50.1360984 48.8483185,50.0660916 49.0700069,49.9377457 C49.2800275,49.7977319 49.4783802,49.5760435 49.7000686,49.2726805 L51.0768703,47.2424814 C50.4118051,46.6357553 49.618394,46.0406969 48.6733013,45.5039776 C47.7282086,44.9555905 46.5847632,44.5822206 45.2779684,44.3255288 L45.6513384,40.7435109 L43.5628003,40.7435109 C43.1427591,40.7435109 42.8043926,40.860189 42.5243651,41.1635521 C42.2560055,41.4202439 42.0926561,41.7469426 42.0693205,42.096977 L41.8709677,44.1505116 C40.4708305,44.1505116 39.2107069,44.3722 38.1022649,44.8389124 L38.1022649,44.8389124 Z" id="Fill-7" fill="#7CC14B" mask="url(#mask-2)"></path>
                    </g>
                </g>
            </g>
        </g>
    </g>
</svg>