<?xml version="1.0" encoding="UTF-8" standalone="no"?>
<svg width="155px" height="155px" viewBox="0 0 155 155" version="1.1" xmlns="http://www.w3.org/2000/svg" xmlns:xlink="http://www.w3.org/1999/xlink">
    <!-- Generator: Sketch 3.8.3 (29802) - http://www.bohemiancoding.com/sketch -->
    <title>wealth_build</title>
    <desc>Created with Sketch.</desc>
    <defs>
        <polygon id="path-1" points="73 0 2.19442231e-15 0 0 91 73 91"></polygon>
    </defs>
    <g id="START-SEQUENCE" stroke="none" stroke-width="1" fill="none" fill-rule="evenodd">
        <g id="-hovericons" transform="translate(-775.000000, -292.000000)">
            <g id="Group" transform="translate(193.000000, 266.000000)">
                <g id="wealth_build" transform="translate(582.000000, 26.000000)">
                    <circle id="Oval-1" fill="#EBF3FB" cx="77.5" cy="77.5" r="77.5"></circle>
                    <g id="Page-1" transform="translate(41.000000, 27.000000)">
                        <g id="Group-5" transform="translate(0.000000, 0.499931)">
                            <mask id="mask-2" fill="white">
                                <use xlink:href="#path-1"></use>
                            </mask>
                            <g id="Clip-4"></g>
                            <path d="M41.8559846,23.4453769 L42.6288308,21.5976077 C42.8380615,21.0980692 42.6013692,20.5239923 42.1031385,20.3147615 C41.6022923,20.1068385 41.0282154,20.3409154 40.8189846,20.8404538 L39.7296769,23.4453769 L33.4579846,23.4453769 L30.4450615,17.5633769 C30.1992154,17.0821462 29.6068308,16.8912231 29.1256,17.1383769 C28.6430615,17.3842231 28.4534462,17.9753 28.6992923,18.4578385 L31.2545231,23.4453769 L25.7125231,23.4453769 L18.3894462,8.63183846 C20.4987538,6.81153077 23.5339077,5.7693 26.8580615,5.7693 C30.4581385,5.7693 33.7326,6.98022308 35.8419077,9.08953077 C38.4586,11.7062231 42.3346,13.0139154 46.2119077,13.0139154 C48.6873692,13.0139154 51.1589077,12.4751462 53.3061385,11.4080692 L47.3561385,23.4453769 L41.8559846,23.4453769 Z M50.0604462,34.5241462 C57.6725231,43.0333 68.0961385,54.6887615 68.0961385,64.5997615 C68.0961385,75.6994538 59.0652154,84.7303769 47.9642154,84.7303769 L36.5310615,84.7303769 L25.0966,84.7303769 C13.9942923,84.7303769 4.96206154,75.6994538 4.96206154,64.5997615 C4.96206154,54.6900692 15.3843692,43.0372231 22.9951385,34.5293769 C23.9000615,33.5185308 24.7500615,32.5678385 25.5399077,31.6655308 L47.5222154,31.6655308 C48.3107538,32.5652231 49.1581385,33.5146077 50.0604462,34.5241462 L50.0604462,34.5241462 Z M23.7836769,29.7039923 L49.2784462,29.7039923 L49.2784462,25.4069154 L23.7836769,25.4069154 L23.7836769,29.7039923 Z M37.2280615,7.70337692 C34.7539077,5.22791538 30.9733692,3.80776154 26.8580615,3.80776154 C22.7427538,3.80776154 18.9622154,5.22791538 16.4854462,7.70337692 C16.4762923,7.71253077 16.4736769,7.7243 16.4671385,7.73214615 C16.4161385,7.78576154 16.3834462,7.84853077 16.3481385,7.90999231 C16.3193692,7.95968462 16.2840615,8.00414615 16.2644462,8.05645385 C16.2422154,8.11660769 16.2396,8.17806923 16.2291385,8.24083846 C16.2186769,8.3023 16.2016769,8.36245385 16.2042923,8.42522308 C16.2056,8.48276154 16.2252154,8.53768462 16.2369846,8.59391538 C16.2513692,8.66322308 16.2618308,8.73122308 16.2906,8.79660769 C16.2958308,8.80837692 16.2945231,8.82014615 16.2997538,8.83191538 L23.5247538,23.4453769 L22.8029077,23.4453769 C22.2615231,23.4453769 21.8221385,23.8847615 21.8221385,24.4261462 L21.8221385,30.6847615 C21.8221385,31.2261462 22.2615231,31.6655308 22.8029077,31.6655308 L22.9219077,31.6655308 C22.4733692,32.1703 22.0117538,32.6881462 21.5331385,33.2216846 C13.7118308,41.9662231 3.00052308,53.9407615 3.00052308,64.5997615 C3.00052308,76.7822231 12.9128308,86.6919154 25.0966,86.6919154 L36.5310615,86.6919154 L47.9642154,86.6919154 C60.1466769,86.6919154 70.0576769,76.7822231 70.0576769,64.5997615 C70.0576769,53.9381462 59.3450615,41.9623 51.5237538,33.2164538 C51.0464462,32.6842231 50.5861385,32.1689923 50.1389077,31.6655308 L50.2592154,31.6655308 C50.8006,31.6655308 51.2399846,31.2261462 51.2399846,30.6847615 L51.2399846,24.4261462 C51.2399846,23.8847615 50.8006,23.4453769 50.2592154,23.4453769 L49.5439077,23.4453769 L56.7689077,8.83191538 C56.7754462,8.82014615 56.7741385,8.80837692 56.7793692,8.79660769 C56.8081385,8.73122308 56.8186,8.66322308 56.8329846,8.59391538 C56.8434462,8.53637692 56.8643692,8.48276154 56.8656769,8.42522308 C56.8669846,8.36245385 56.8499846,8.30360769 56.8408308,8.24214615 C56.8303692,8.17937692 56.8264462,8.11660769 56.8042154,8.05645385 C56.7859077,8.00414615 56.7492923,7.95968462 56.7218308,7.9113 C56.6852154,7.84853077 56.6525231,7.78576154 56.6028308,7.73214615 C56.5949846,7.7243 56.5923692,7.71253077 56.5832154,7.70337692 C56.5452923,7.66545385 56.4956,7.64714615 56.4537538,7.61706923 C56.4092923,7.58437692 56.3752923,7.54253077 56.3256,7.51768462 C56.3138308,7.51114615 56.3007538,7.51245385 56.2902923,7.50722308 C56.2249077,7.47976154 56.1595231,7.4693 56.0915231,7.45491538 C56.0326769,7.44314615 55.9751385,7.42222308 55.9162923,7.42091538 C55.8587538,7.41960769 55.8025231,7.4353 55.7449846,7.44445385 C55.6769846,7.45491538 55.6116,7.45883846 55.5488308,7.48237692 C55.4991385,7.50068462 55.4559846,7.53468462 55.4089077,7.56214615 C55.3448308,7.59876154 55.2807538,7.63276154 55.2258308,7.68376154 C55.2166769,7.69291538 55.2049077,7.69553077 55.1970615,7.70337692 C50.7469846,12.1495308 41.6781385,12.1521462 37.2280615,7.70337692 L37.2280615,7.70337692 Z" id="Fill-3" stroke="#179FD9" fill="#179FD9" mask="url(#mask-2)"></path>
                            <path d="M37.04591,61.383461 C37.5993636,61.5977011 38.0546239,61.8655013 38.3849108,62.1868615 C38.7241243,62.499295 38.9026577,62.9188485 38.9026577,63.4544488 C38.9026577,64.8737896 38.1438906,65.7218234 36.5995764,65.9985503 L37.04591,61.383461 Z M34.8856555,56.625545 C34.3143485,56.3755982 33.8590882,56.0988714 33.510948,55.7596579 C33.1538812,55.4204444 32.9842744,54.9741108 32.9842744,54.4385105 C32.9842744,54.1885637 33.0289078,53.9564702 33.1181745,53.7422301 C33.1895878,53.5190633 33.3324146,53.3226765 33.510948,53.1441431 C33.6984081,52.9745363 33.9305016,52.8227829 34.2340084,52.6888828 C34.5107353,52.5728361 34.8678021,52.4746427 35.305209,52.4032293 L34.8856555,56.625545 Z M32.7700343,49.394941 C31.9398538,49.7520078 31.2435734,50.2251214 30.6633398,50.7875018 C30.1009595,51.3409554 29.6635525,51.9658224 29.3600457,52.6621028 C29.0565389,53.3851632 28.9226388,54.0992969 28.9226388,54.831284 C28.9226388,55.8310712 29.0833189,56.6612517 29.4136057,57.3218254 C29.7438926,57.9823991 30.1723728,58.5358528 30.6990465,58.964333 C31.2346468,59.3928132 31.8327338,59.7231001 32.4843808,59.9819736 C33.1449545,60.2319204 33.8144549,60.4461605 34.4839552,60.6336206 L33.9662083,65.9092836 C33.537728,65.7932368 33.1717345,65.6593367 32.8414477,65.4808033 C32.5290141,65.3022699 32.2255073,65.1505165 31.9577072,64.971983 C31.6720537,64.8113029 31.4131802,64.6595495 31.1900134,64.5435028 C30.9579199,64.4363827 30.7347531,64.373896 30.5026597,64.373896 C30.2973462,64.373896 30.0920328,64.4274561 29.895646,64.5435028 C29.7081859,64.6416962 29.5475058,64.7755963 29.4403857,64.9362763 L28.101385,66.8644374 C28.779812,67.5071578 29.6010658,68.0338314 30.5651464,68.4712383 C31.5381536,68.9175719 32.5647208,69.2210787 33.6269948,69.3906855 L33.3591946,72.2740004 L34.9392155,72.2740004 C35.2695023,72.2740004 35.5373025,72.1579537 35.7336893,71.9615669 C35.9390027,71.7473268 36.0639761,71.5152334 36.0818295,71.2474332 L36.2514362,69.5067322 C37.3315635,69.4263922 38.295644,69.1942987 39.1168978,68.8193785 C39.956005,68.4355316 40.6701387,67.9534914 41.2503724,67.3554044 C41.8216793,66.7751707 42.2590863,66.0788903 42.5536664,65.2933432 C42.8571733,64.5256494 43,63.695469 43,62.8117285 C43,62.2225682 42.91966,61.6958945 42.7857599,61.2406343 C42.6250798,60.7943007 42.428693,60.3747471 42.1608929,60.0266069 C41.9020194,59.6784667 41.5806592,59.3571066 41.2235923,59.1071597 C40.8665255,58.8482863 40.4826786,58.6161928 40.0720517,58.4108794 C39.6524981,58.2144926 39.2150912,58.0359591 38.7687576,57.8842057 C38.3402774,57.7235256 37.8939438,57.5806989 37.4476102,57.4557255 L37.9207238,52.5103494 C38.215304,52.5996161 38.4920308,52.6888828 38.7330509,52.7960029 C39.0008511,52.9120496 39.2418712,53.0191697 39.4561114,53.1173631 C39.6882048,53.2155565 39.8845916,53.2958965 40.0809784,53.3583832 C40.2595118,53.4119432 40.4291186,53.4476499 40.580872,53.4476499 C40.7951121,53.4476499 40.9914989,53.3940899 41.1611056,53.2958965 C41.3217857,53.1887764 41.4735391,53.0191697 41.6431459,52.7870762 L42.6964932,51.2338353 C42.1876729,50.7696484 41.5806592,50.3143882 40.8575988,49.9037613 C40.1345384,49.4842077 39.2597246,49.1985542 38.2599373,49.0021674 L38.5455908,46.2616792 L36.9477166,46.2616792 C36.6263564,46.2616792 36.367483,46.3509459 36.1532428,46.5830394 C35.9479294,46.7794262 35.822956,47.029373 35.8051026,47.2971731 L35.6533492,48.8682674 C34.5821486,48.8682674 33.6180681,49.0378741 32.7700343,49.394941 L32.7700343,49.394941 Z" id="Fill-7" fill="#7CC14B" mask="url(#mask-2)"></path>
                        </g>
                    </g>
                </g>
            </g>
        </g>
    </g>
</svg>