<?xml version="1.0" encoding="UTF-8" standalone="no"?>
<svg width="155px" height="155px" viewBox="0 0 155 155" version="1.1" xmlns="http://www.w3.org/2000/svg" xmlns:xlink="http://www.w3.org/1999/xlink">
    <!-- Generator: Sketch 3.8.3 (29802) - http://www.bohemiancoding.com/sketch -->
    <title>income_now_color</title>
    <desc>Created with Sketch.</desc>
    <defs>
        <polygon id="path-1" points="118.976921 124.151261 118.976921 24.5927597 35.0006788 24.5927597 35.0006788 124.151261"></polygon>
    </defs>
    <g id="START-SEQUENCE" stroke="none" stroke-width="1" fill="none" fill-rule="evenodd">
        <g id="-hovericons" transform="translate(-236.000000, -289.000000)">
            <g id="Group" transform="translate(193.000000, 266.000000)">
                <g id="income_now" transform="translate(43.000000, 22.000000)">
                    <g id="income_now_color" transform="translate(0.000000, 0.256489)">
                        <circle id="Oval-1" fill="#EBF3FB" cx="77.5" cy="78.2435109" r="77.5"></circle>
                        <mask id="mask-2" fill="white">
                            <use xlink:href="#path-1"></use>
                        </mask>
                        <g id="Clip-2"></g>
                        <path d="M76.9888,121.040121 C55.5526788,121.040121 38.1095273,103.593432 38.1095273,82.1491798 C38.1095273,60.7066252 55.5526788,43.2599361 76.9888,43.2599361 C98.4249212,43.2599361 115.868073,60.7066252 115.868073,82.1491798 C115.868073,103.593432 98.4249212,121.040121 76.9888,121.040121 L76.9888,121.040121 Z M66.8799515,33.9271966 L71.5449212,33.9271966 L71.5449212,27.7042387 L66.8799515,27.7042387 L66.8799515,33.9271966 Z M82.4326788,33.9254992 L87.0976485,33.9254992 L87.0976485,27.7025412 L82.4326788,27.7025412 L82.4326788,33.9254992 Z M74.6571636,33.9271966 L79.3221333,33.9271966 L79.3221333,27.7042387 L74.6571636,27.7042387 L74.6571636,33.9271966 Z M78.5432242,37.0369782 L88.6520727,37.0369782 C89.5124364,37.0369782 90.2081939,36.3427092 90.2081939,35.4820874 L90.2081939,26.1476504 C90.2081939,25.2870286 89.5124364,24.5927597 88.6520727,24.5927597 L65.3255273,24.5927597 C64.4651636,24.5927597 63.771103,25.2870286 63.771103,26.1476504 L63.771103,35.4820874 C63.771103,36.3427092 64.4651636,37.0369782 65.3255273,37.0369782 L75.4343758,37.0369782 L75.4343758,40.2265412 C53.0055273,41.0532134 35.0006788,59.5166924 35.0006788,82.1491798 C35.0006788,105.309583 53.8370424,124.1516 76.9888,124.1516 C100.140558,124.1516 118.976921,105.309583 118.976921,82.1491798 C118.976921,59.5166924 100.972073,41.0532134 78.5432242,40.2265412 L78.5432242,37.0369782 Z" id="Fill-1" fill="#179FD9" mask="url(#mask-2)"></path>
                        <path d="M103.115176,37.2123277 L108.448752,40.4154706 L106.846812,43.085605 L101.513236,39.8807647 L103.115176,37.2123277 Z M106.580388,46.5501597 C106.829842,46.7012353 107.106448,46.7691345 107.379661,46.7691345 C107.907418,46.7691345 108.4216,46.5026303 108.713479,46.0154538 L111.917358,40.6785798 C112.127782,40.3288992 112.19057,39.9062269 112.090448,39.5073193 C111.992024,39.1033193 111.735782,38.7587311 111.381115,38.5482437 L103.3816,33.7460756 C102.646812,33.2979412 101.689721,33.5423782 101.248509,34.2807815 L98.0463273,39.6193529 C97.835903,39.9690336 97.7714182,40.3917059 97.8715394,40.7906134 C97.9716606,41.192916 98.2262061,41.5392017 98.5808727,41.7479916 L106.580388,46.5501597 Z" id="Fill-4" fill="#179FD9" mask="url(#mask-2)"></path>
                        <path d="M76.9888,111.706363 C60.6961939,111.706363 47.4411636,98.4456571 47.4411636,82.1498588 C47.4411636,65.855758 60.6961939,52.5933546 76.9888,52.5933546 C93.2814061,52.5933546 106.536436,65.855758 106.536436,82.1498588 C106.536436,98.4456571 93.2814061,111.706363 76.9888,111.706363 M76.9888,49.4818756 C58.9805576,49.4818756 44.3306182,64.1345143 44.3306182,82.1498588 C44.3306182,100.165203 58.9805576,114.817842 76.9888,114.817842 C94.9970424,114.817842 109.646982,100.165203 109.646982,82.1498588 C109.646982,64.1345143 94.9970424,49.4818756 76.9888,49.4818756" id="Fill-6" fill="#179FD9" mask="url(#mask-2)"></path>
                        <path d="M78.6911462,84.508782 C79.4145504,84.7888095 80.0096088,85.1388438 80.4413178,85.558885 C80.8846946,85.9672584 81.1180508,86.5156454 81.1180508,87.2157141 C81.1180508,89.070896 80.1262869,90.179338 78.1077557,90.5410401 L78.6911462,84.508782 Z M75.867536,78.289839 C75.1207962,77.9631403 74.5257378,77.6014382 74.0706932,77.1580614 C73.6039808,76.7146846 73.3822924,76.131294 73.3822924,75.4312254 C73.3822924,75.1045267 73.4406314,74.8011636 73.5573095,74.5211362 C73.650652,74.2294409 73.837337,73.9727491 74.0706932,73.7393929 C74.3157172,73.5177045 74.6190803,73.3193517 75.0157859,73.1443345 C75.377488,72.992653 75.8442004,72.8643071 76.4159231,72.7709646 L75.867536,78.289839 Z M73.1022649,68.8389124 C72.0171585,69.3056249 71.1070693,69.9240188 70.3486616,70.6590909 C69.6135896,71.3824951 69.0418668,72.1992419 68.6451613,73.1093311 C68.2484557,74.0544238 68.0734386,74.9878486 68.0734386,75.9446091 C68.0734386,77.2514039 68.2834592,78.3365102 68.7151682,79.1999282 C69.1468771,80.0633462 69.7069321,80.7867505 70.3953329,81.3468054 C71.0954015,81.9068603 71.8771448,82.3385693 72.728895,82.6769358 C73.592313,83.0036345 74.4673988,83.2836619 75.3424846,83.5286859 L74.6657515,90.424362 C74.1056966,90.2726805 73.6273164,90.0976633 73.1956074,89.8643071 C72.787234,89.6309509 72.3905285,89.4325981 72.0404942,89.1992419 C71.6671242,88.9892213 71.3287577,88.7908685 71.0370625,88.639187 C70.7336994,88.4991732 70.4420041,88.4174986 70.138641,88.4174986 C69.8702814,88.4174986 69.6019218,88.4875054 69.3452299,88.639187 C69.1002059,88.7675329 68.8901853,88.94255 68.7501716,89.1525706 L67,91.6728177 C67.8867536,92.5129001 68.9601922,93.2013009 70.2203157,93.7730236 C71.4921071,94.3564142 72.8339053,94.7531197 74.2223747,94.9748081 L73.8723404,98.7435109 L75.9375429,98.7435109 C76.3692519,98.7435109 76.7192862,98.5918294 76.975978,98.3351376 C77.2443377,98.0551101 77.407687,97.751747 77.4310226,97.4017127 L77.6527111,95.1264896 C79.0645161,95.0214794 80.3246397,94.7181163 81.3980782,94.2280682 C82.4948524,93.7263524 83.4282773,93.0962906 84.186685,92.3145473 C84.9334248,91.5561396 85.5051476,90.6460504 85.8901853,89.6192831 C86.2868909,88.6158513 86.4735758,87.530745 86.4735758,86.3756317 C86.4735758,85.6055562 86.3685655,84.9171554 86.1935484,84.3220971 C85.9835278,83.7387065 85.726836,83.1903194 85.3768016,82.7352748 C85.0384351,82.2802302 84.618394,81.860189 84.1516815,81.5334903 C83.6849691,81.1951238 83.1832533,80.8917608 82.646534,80.6234011 C82.0981469,80.3667093 81.5264242,80.1333531 80.9430336,79.9350003 C80.3829787,79.7249797 79.7995882,79.5382947 79.2161977,79.3749454 L79.8345916,72.9109783 C80.2196294,73.0276564 80.5813315,73.1443345 80.8963624,73.2843483 C81.2463967,73.4360298 81.5614276,73.5760435 81.841455,73.7043894 C82.1448181,73.8327354 82.40151,73.9377457 82.6582018,74.0194203 C82.891558,74.0894272 83.1132464,74.1360984 83.3115992,74.1360984 C83.5916266,74.1360984 83.8483185,74.0660916 84.0700069,73.9377457 C84.2800275,73.7977319 84.4783802,73.5760435 84.7000686,73.2726805 L86.0768703,71.2424814 C85.4118051,70.6357553 84.618394,70.0406969 83.6733013,69.5039776 C82.7282086,68.9555905 81.5847632,68.5822206 80.2779684,68.3255288 L80.6513384,64.7435109 L78.5628003,64.7435109 C78.1427591,64.7435109 77.8043926,64.860189 77.5243651,65.1635521 C77.2560055,65.4202439 77.0926561,65.7469426 77.0693205,66.096977 L76.8709677,68.1505116 C75.4708305,68.1505116 74.2107069,68.3722 73.1022649,68.8389124 L73.1022649,68.8389124 Z" id="Fill-7" fill="#7CC14B" mask="url(#mask-2)"></path>
                    </g>
                </g>
            </g>
        </g>
    </g>
</svg>