<?xml version="1.0" encoding="UTF-8" standalone="no"?>
<svg width="155px" height="155px" viewBox="0 0 155 155" version="1.1" xmlns="http://www.w3.org/2000/svg" xmlns:xlink="http://www.w3.org/1999/xlink">
    <!-- Generator: Sketch 3.8.3 (29802) - http://www.bohemiancoding.com/sketch -->
    <title>target_date_income_icon</title>
    <desc>Created with Sketch.</desc>
    <defs></defs>
    <g id="START-SEQUENCE" stroke="none" stroke-width="1" fill="none" fill-rule="evenodd">
        <g id="-hovericons" transform="translate(-504.000000, -292.000000)">
            <g id="Group" transform="translate(193.000000, 266.000000)">
                <g id="Group-2" transform="translate(311.000000, 26.000000)">
                    <g id="target_date_income_icon">
                        <circle id="Oval-1" fill="#EBF3FB" cx="77.5" cy="77.5" r="77.5"></circle>
                        <path d="M113.321429,111.928571 L42.6785714,111.928571 C40.1385,111.928571 38.0714286,109.8615 38.0714286,107.321429 L38.0714286,61.25 L117.928571,61.25 L117.928571,107.321429 C117.928571,109.8615 115.8615,111.928571 113.321429,111.928571 M113.321429,36.6785714 L97.9642857,36.6785714 L97.9642857,30.5357143 C97.9642857,29.6864643 97.2778214,29 96.4285714,29 C95.5793214,29 94.8928571,29.6864643 94.8928571,30.5357143 L94.8928571,44.3571429 C94.8928571,45.2063929 95.5793214,45.8928571 96.4285714,45.8928571 C97.2778214,45.8928571 97.9642857,45.2063929 97.9642857,44.3571429 L97.9642857,39.75 L113.321429,39.75 C115.8615,39.75 117.928571,41.8170714 117.928571,44.3571429 L117.928571,58.1785714 L38.0714286,58.1785714 L38.0714286,44.3571429 C38.0714286,41.8170714 40.1385,39.75 42.6785714,39.75 L54.9642857,39.75 L54.9642857,36.6785714 L42.6785714,36.6785714 C38.4446071,36.6785714 35,40.1231786 35,44.3571429 L35,107.321429 C35,111.555393 38.4446071,115 42.6785714,115 L113.321429,115 C117.555393,115 121,111.555393 121,107.321429 L121,44.3571429 C121,40.1231786 117.555393,36.6785714 113.321429,36.6785714" id="Fill-1" fill="#12A0DA"></path>
                        <path d="M57.5714286,45.8928571 C58.4206786,45.8928571 59.1071429,45.2063929 59.1071429,44.3571429 L59.1071429,39.75 L89.8214286,39.75 L89.8214286,36.6785714 L59.1071429,36.6785714 L59.1071429,30.5357143 C59.1071429,29.6864643 58.4206786,29 57.5714286,29 C56.7221786,29 56.0357143,29.6864643 56.0357143,30.5357143 L56.0357143,44.3571429 C56.0357143,45.2063929 56.7221786,45.8928571 57.5714286,45.8928571" id="Fill-3" fill="#12A0DA"></path>
                        <polygon id="Fill-5" fill="#7CC24C" points="56.6506143 76.9145929 58.4919357 79.3717357 62.1791857 76.60745 62.1791857 99.6431643 65.2506143 99.6431643 65.2506143 73.5360214 62.7934714 72.30745"></polygon>
                        <path d="M84.9443071,82.8535071 L82.1431643,82.7859357 L82.1431643,76.6077571 L91.35745,76.6077571 L91.35745,73.5363286 L79.0717357,73.5363286 L79.0717357,85.7851857 L84.90745,85.9249357 C87.7853786,85.9249357 90.1273429,88.2669 90.1273429,91.1448286 C90.1273429,94.0227571 87.7853786,96.3662571 84.90745,96.3662571 C82.8726286,96.3662571 81.0098071,95.1714714 80.1620929,93.3209357 L77.3686286,94.6017214 C78.7169857,97.5410786 81.6763071,99.4376857 84.90745,99.4376857 C89.4792714,99.4376857 93.1987714,95.7181857 93.1987714,91.1448286 C93.1987714,86.5730071 89.4792714,82.8535071 84.9443071,82.8535071" id="Fill-7" fill="#7CC24C"></path>
                    </g>
                </g>
            </g>
        </g>
    </g>
</svg>