<?xml version="1.0" encoding="UTF-8" standalone="no"?>
<svg width="155px" height="155px" viewBox="0 0 155 155" version="1.1" xmlns="http://www.w3.org/2000/svg" xmlns:xlink="http://www.w3.org/1999/xlink">
    <!-- Generator: Sketch 3.8.3 (29802) - http://www.bohemiancoding.com/sketch -->
    <title>shield_icon_color</title>
    <desc>Created with Sketch.</desc>
    <defs></defs>
    <g id="START-SEQUENCE" stroke="none" stroke-width="1" fill="none" fill-rule="evenodd">
        <g id="-hovericons" transform="translate(-1046.000000, -290.000000)">
            <g id="Group" transform="translate(193.000000, 266.000000)">
                <g id="wealth_protection_color" transform="translate(853.000000, 24.000000)">
                    <g id="shield_icon_color">
                        <path d="M77.5,155 C120.302068,155 155,120.302068 155,77.5 C155,34.6979319 120.302068,0 77.5,0 C34.6979319,0 0,34.6979319 0,77.5 C0,120.302068 34.6979319,155 77.5,155 Z" id="Oval-1" fill="#EBF3FB"></path>
                        <path d="M77.497425,125.61027 C32.568825,104.19657 29.427325,57.77447 29.226475,49.75592 C35.082025,48.13367 60.152225,40.77947 77.497425,29.53702 C94.842625,40.77947 119.912825,48.13367 125.768375,49.75592 C125.567525,57.77447 122.426025,104.19657 77.497425,125.61027 M128.992275,48.48902 C128.976825,47.77317 128.487575,47.16032 127.797475,46.98007 C127.493625,46.89252 97.257975,38.84822 78.393525,26.27192 C77.847625,25.91142 77.147225,25.91142 76.601325,26.27192 C57.742025,38.84307 27.501225,46.89252 27.197375,46.98007 C26.507275,47.16032 26.018025,47.77317 26.002575,48.48902 C25.987125,49.05037 25.163125,104.74247 76.812475,128.84962 C77.033925,128.94747 77.265675,128.99897 77.497425,128.99897 C77.729175,128.99897 77.960925,128.94747 78.182375,128.84962 C129.831725,104.74247 129.007725,49.05037 128.992275,48.48902" id="Fill-1" fill="#179FD9"></path>
                        <path d="M95.20055,77.5 C95.20055,87.25925 87.25925,95.2057 77.49485,95.2057 C67.7356,95.2057 59.7943,87.25925 59.7943,77.5 C59.7943,67.7356 67.7356,59.7943 77.49485,59.7943 C87.25925,59.7943 95.20055,67.7356 95.20055,77.5 M56.57555,77.5 C56.57555,89.036 65.95885,98.4193 77.49485,98.4193 C89.036,98.4193 98.4193,89.036 98.4193,77.5 C98.4193,65.964 89.036,56.5807 77.49485,56.5807 C65.95885,56.5807 56.57555,65.964 56.57555,77.5" id="Fill-3" fill="#7CC14B"></path>
                        <path d="M88.76305,77.55047 C88.76305,83.76137 83.7109,88.81867 77.49485,88.81867 C71.28395,88.81867 66.2318,83.76137 66.2318,77.55047 C66.2318,71.33957 71.28395,66.28227 77.49485,66.28227 C83.7109,66.28227 88.76305,71.33957 88.76305,77.55047 M63.01305,77.55047 C63.01305,85.53812 69.51235,92.03742 77.49485,92.03742 C85.4825,92.03742 91.9818,85.53812 91.9818,77.55047 C91.9818,69.56282 85.4825,63.06352 77.49485,63.06352 C69.51235,63.06352 63.01305,69.56282 63.01305,77.55047" id="Fill-5" fill="#179FD9"></path>
                        <path d="M78.261685,78.48571 C78.580985,78.60931 78.843635,78.76381 79.034185,78.94921 C79.229885,79.12946 79.332885,79.37151 79.332885,79.68051 C79.332885,80.49936 78.895135,80.98861 78.004185,81.14826 L78.261685,78.48571 Z M77.015385,75.74076 C76.685785,75.59656 76.423135,75.43691 76.222285,75.24121 C76.016285,75.04551 75.918435,74.78801 75.918435,74.47901 C75.918435,74.33481 75.944185,74.20091 75.995685,74.07731 C76.036885,73.94856 76.119285,73.83526 76.222285,73.73226 C76.330435,73.63441 76.464335,73.54686 76.639435,73.46961 C76.799085,73.40266 77.005085,73.34601 77.257435,73.30481 L77.015385,75.74076 Z M75.794835,71.56926 C75.315885,71.77526 74.914185,72.04821 74.579435,72.37266 C74.254985,72.69196 74.002635,73.05246 73.827535,73.45416 C73.652435,73.87131 73.575185,74.28331 73.575185,74.70561 C73.575185,75.28241 73.667885,75.76136 73.858435,76.14246 C74.048985,76.52356 74.296185,76.84286 74.600035,77.09006 C74.909035,77.33726 75.254085,77.52781 75.630035,77.67716 C76.011135,77.82136 76.397385,77.94496 76.783635,78.05311 L76.484935,81.09676 C76.237735,81.02981 76.026585,80.95256 75.836035,80.84956 C75.655785,80.74656 75.480685,80.65901 75.326185,80.55601 C75.161385,80.46331 75.012035,80.37576 74.883285,80.30881 C74.749385,80.24701 74.620635,80.21096 74.486735,80.21096 C74.368285,80.21096 74.249835,80.24186 74.136535,80.30881 C74.028385,80.36546 73.935685,80.44271 73.873885,80.53541 L73.101385,81.64781 C73.492785,82.01861 73.966585,82.32246 74.522785,82.57481 C75.084135,82.83231 75.676385,83.00741 76.289235,83.10526 L76.134735,84.76871 L77.046285,84.76871 C77.236835,84.76871 77.391335,84.70176 77.504635,84.58846 C77.623085,84.46486 77.695185,84.33096 77.705485,84.17646 L77.803335,83.17221 C78.426485,83.12586 78.982685,82.99196 79.456485,82.77566 C79.940585,82.55421 80.352585,82.27611 80.687335,81.93106 C81.016935,81.59631 81.269285,81.19461 81.439235,80.74141 C81.614335,80.29851 81.696735,79.81956 81.696735,79.30971 C81.696735,78.96981 81.650385,78.66596 81.573135,78.40331 C81.480435,78.14581 81.367135,77.90376 81.212635,77.70291 C81.063285,77.50206 80.877885,77.31666 80.671885,77.17246 C80.465885,77.02311 80.244435,76.88921 80.007535,76.77076 C79.765485,76.65746 79.513135,76.55446 79.255635,76.46691 C79.008435,76.37421 78.750935,76.29181 78.493435,76.21971 L78.766385,73.36661 C78.936335,73.41811 79.095985,73.46961 79.235035,73.53141 C79.389535,73.59836 79.528585,73.66016 79.652185,73.71681 C79.786085,73.77346 79.899385,73.81981 80.012685,73.85586 C80.115685,73.88676 80.213535,73.90736 80.301085,73.90736 C80.424685,73.90736 80.537985,73.87646 80.635835,73.81981 C80.728535,73.75801 80.816085,73.66016 80.913935,73.52626 L81.521635,72.63016 C81.228085,72.36236 80.877885,72.09971 80.460735,71.86281 C80.043585,71.62076 79.538885,71.45596 78.962085,71.34266 L79.126885,69.76161 L78.205035,69.76161 C78.019635,69.76161 77.870285,69.81311 77.746685,69.94701 C77.628235,70.06031 77.556135,70.20451 77.545835,70.35901 L77.458285,71.26541 C76.840285,71.26541 76.284085,71.36326 75.794835,71.56926 L75.794835,71.56926 Z" id="Fill-7" fill="#7CC14B"></path>
                    </g>
                </g>
            </g>
        </g>
    </g>
</svg>