<?xml version="1.0" encoding="UTF-8" standalone="no"?>
<svg width="84px" height="101px" viewBox="0 0 84 101" version="1.1" xmlns="http://www.w3.org/2000/svg" xmlns:xlink="http://www.w3.org/1999/xlink">
    <!-- Generator: Sketch 3.8.3 (29802) - http://www.bohemiancoding.com/sketch -->
    <title>income_now</title>
    <desc>Created with Sketch.</desc>
    <defs>
        <polygon id="path-1" points="0.000678787879 100.151261 83.9769212 100.151261 83.9769212 0.592759664 0.000678787879 0.592759664 0.000678787879 100.151261"></polygon>
    </defs>
    <g id="START-SEQUENCE" stroke="none" stroke-width="1" fill="none" fill-rule="evenodd">
        <g id="portfolio_no_hover_yet" transform="translate(-271.000000, -315.000000)">
            <g id="Group" transform="translate(193.000000, 266.000000)">
                <g id="income_now" transform="translate(78.000000, 49.000000)">
                    <g id="Group-3" transform="translate(0.000000, 0.256489)">
                        <mask id="mask-2" fill="white">
                            <use xlink:href="#path-1"></use>
                        </mask>
                        <g id="Clip-2"></g>
                        <path d="M41.9888,97.040121 C20.5526788,97.040121 3.10952727,79.5934319 3.10952727,58.1491798 C3.10952727,36.7066252 20.5526788,19.2599361 41.9888,19.2599361 C63.4249212,19.2599361 80.8680727,36.7066252 80.8680727,58.1491798 C80.8680727,79.5934319 63.4249212,97.040121 41.9888,97.040121 L41.9888,97.040121 Z M31.8799515,9.92719664 L36.5449212,9.92719664 L36.5449212,3.70423866 L31.8799515,3.70423866 L31.8799515,9.92719664 Z M47.4326788,9.92549916 L52.0976485,9.92549916 L52.0976485,3.70254118 L47.4326788,3.70254118 L47.4326788,9.92549916 Z M39.6571636,9.92719664 L44.3221333,9.92719664 L44.3221333,3.70423866 L39.6571636,3.70423866 L39.6571636,9.92719664 Z M43.5432242,16.2265412 L43.5432242,13.0369782 L53.6520727,13.0369782 C54.5124364,13.0369782 55.2081939,12.3427092 55.2081939,11.4820874 L55.2081939,2.14765042 C55.2081939,1.28702857 54.5124364,0.592759664 53.6520727,0.592759664 L30.3255273,0.592759664 C29.4651636,0.592759664 28.771103,1.28702857 28.771103,2.14765042 L28.771103,11.4820874 C28.771103,12.3427092 29.4651636,13.0369782 30.3255273,13.0369782 L40.4343758,13.0369782 L40.4343758,16.2265412 C18.0055273,17.0532134 0.000678787879,35.5166924 0.000678787879,58.1491798 C0.000678787879,81.3095832 18.8370424,100.1516 41.9888,100.1516 C65.1405576,100.1516 83.9769212,81.3095832 83.9769212,58.1491798 C83.9769212,35.5166924 65.9720727,17.0532134 43.5432242,16.2265412 L43.5432242,16.2265412 Z" id="Fill-1" fill="#162E5C" mask="url(#mask-2)"></path>
                    </g>
                    <path d="M68.1151758,13.4688168 L73.4487515,16.6719597 L71.8468121,19.3420941 L66.5132364,16.1372538 L68.1151758,13.4688168 Z M71.5803879,22.8066487 C71.8298424,22.9577244 72.1064485,23.0256235 72.3796606,23.0256235 C72.9074182,23.0256235 73.4216,22.7591193 73.7134788,22.2719429 L76.9173576,16.9350689 C77.1277818,16.5853882 77.1905697,16.162716 77.0904485,15.7638084 C76.9920242,15.3598084 76.7357818,15.0152202 76.3811152,14.8047328 L68.3816,10.0025647 C67.6468121,9.55443025 66.6897212,9.79886723 66.2485091,10.5372706 L63.0463273,15.875842 C62.835903,16.2255227 62.7714182,16.648195 62.8715394,17.0471025 C62.9716606,17.449405 63.2262061,17.7956908 63.5808727,18.0044807 L71.5803879,22.8066487 Z" id="Fill-4" fill="#162E5C"></path>
                    <path d="M41.9888,87.9628521 C25.6961939,87.9628521 12.4411636,74.7021462 12.4411636,58.4063479 C12.4411636,42.1122471 25.6961939,28.8498437 41.9888,28.8498437 C58.2814061,28.8498437 71.5364364,42.1122471 71.5364364,58.4063479 C71.5364364,74.7021462 58.2814061,87.9628521 41.9888,87.9628521 M41.9888,25.7383647 C23.9805576,25.7383647 9.33061818,40.3910034 9.33061818,58.4063479 C9.33061818,76.4216924 23.9805576,91.0743311 41.9888,91.0743311 C59.9970424,91.0743311 74.6469818,76.4216924 74.6469818,58.4063479 C74.6469818,40.3910034 59.9970424,25.7383647 41.9888,25.7383647" id="Fill-6" fill="#16235C"></path>
                    <path d="M43.6911462,60.7652711 C44.4145504,61.0452986 45.0096088,61.3953329 45.4413178,61.8153741 C45.8846946,62.2237474 46.1180508,62.7721345 46.1180508,63.4722032 C46.1180508,65.327385 45.1262869,66.435827 43.1077557,66.7975292 L43.6911462,60.7652711 Z M40.867536,54.5463281 C40.1207962,54.2196294 39.5257378,53.8579272 39.0706932,53.4145504 C38.6039808,52.9711736 38.3822924,52.3877831 38.3822924,51.6877145 C38.3822924,51.3610158 38.4406314,51.0576527 38.5573095,50.7776253 C38.650652,50.48593 38.837337,50.2292382 39.0706932,49.9958819 C39.3157172,49.7741935 39.6190803,49.5758408 40.0157859,49.4008236 C40.377488,49.2491421 40.8442004,49.1207962 41.4159231,49.0274537 L40.867536,54.5463281 Z M38.1022649,45.0954015 C37.0171585,45.5621139 36.1070693,46.1805079 35.3486616,46.91558 C34.6135896,47.6389842 34.0418668,48.455731 33.6451613,49.3658202 C33.2484557,50.3109128 33.0734386,51.2443377 33.0734386,52.2010981 C33.0734386,53.5078929 33.2834592,54.5929993 33.7151682,55.4564173 C34.1468771,56.3198353 34.7069321,57.0432395 35.3953329,57.6032944 C36.0954015,58.1633493 36.8771448,58.5950583 37.728895,58.9334248 C38.592313,59.2601235 39.4673988,59.540151 40.3424846,59.785175 L39.6657515,66.6808511 C39.1056966,66.5291695 38.6273164,66.3541524 38.1956074,66.1207962 C37.787234,65.8874399 37.3905285,65.6890872 37.0404942,65.455731 C36.6671242,65.2457104 36.3287577,65.0473576 36.0370625,64.895676 C35.7336994,64.7556623 35.4420041,64.6739876 35.138641,64.6739876 C34.8702814,64.6739876 34.6019218,64.7439945 34.3452299,64.895676 C34.1002059,65.024022 33.8901853,65.1990391 33.7501716,65.4090597 L32,67.9293068 C32.8867536,68.7693892 33.9601922,69.45779 35.2203157,70.0295127 C36.4921071,70.6129032 37.8339053,71.0096088 39.2223747,71.2312972 L38.8723404,75 L40.9375429,75 C41.3692519,75 41.7192862,74.8483185 41.975978,74.5916266 C42.2443377,74.3115992 42.407687,74.0082361 42.4310226,73.6582018 L42.6527111,71.3829787 C44.0645161,71.2779684 45.3246397,70.9746054 46.3980782,70.4845573 C47.4948524,69.9828415 48.4282773,69.3527797 49.186685,68.5710364 C49.9334248,67.8126287 50.5051476,66.9025395 50.8901853,65.8757721 C51.2868909,64.8723404 51.4735758,63.787234 51.4735758,62.6321208 C51.4735758,61.8620453 51.3685655,61.1736445 51.1935484,60.5785861 C50.9835278,59.9951956 50.726836,59.4468085 50.3768016,58.9917639 C50.0384351,58.5367193 49.618394,58.1166781 49.1516815,57.7899794 C48.6849691,57.4516129 48.1832533,57.1482498 47.646534,56.8798902 C47.0981469,56.6231984 46.5264242,56.3898421 45.9430336,56.1914894 C45.3829787,55.9814688 44.7995882,55.7947838 44.2161977,55.6314345 L44.8345916,49.1674674 C45.2196294,49.2841455 45.5813315,49.4008236 45.8963624,49.5408373 C46.2463967,49.6925189 46.5614276,49.8325326 46.841455,49.9608785 C47.1448181,50.0892244 47.40151,50.1942347 47.6582018,50.2759094 C47.891558,50.3459163 48.1132464,50.3925875 48.3115992,50.3925875 C48.5916266,50.3925875 48.8483185,50.3225806 49.0700069,50.1942347 C49.2800275,50.054221 49.4783802,49.8325326 49.7000686,49.5291695 L51.0768703,47.4989705 C50.4118051,46.8922443 49.618394,46.297186 48.6733013,45.7604667 C47.7282086,45.2120796 46.5847632,44.8387097 45.2779684,44.5820178 L45.6513384,41 L43.5628003,41 C43.1427591,41 42.8043926,41.1166781 42.5243651,41.4200412 C42.2560055,41.676733 42.0926561,42.0034317 42.0693205,42.353466 L41.8709677,44.4070007 C40.4708305,44.4070007 39.2107069,44.6286891 38.1022649,45.0954015 L38.1022649,45.0954015 Z" id="Fill-7" fill="#162E5C"></path>
                </g>
            </g>
        </g>
    </g>
</svg>