<?xml version="1.0" encoding="UTF-8" standalone="no"?>
<svg width="86px" height="86px" viewBox="0 0 86 86" version="1.1" xmlns="http://www.w3.org/2000/svg" xmlns:xlink="http://www.w3.org/1999/xlink">
    <!-- Generator: Sketch 3.8.3 (29802) - http://www.bohemiancoding.com/sketch -->
    <title>target_date_income_icon</title>
    <desc>Created with Sketch.</desc>
    <defs></defs>
    <g id="START-SEQUENCE" stroke="none" stroke-width="1" fill="none" fill-rule="evenodd">
        <g id="portfolio_hover" transform="translate(-542.000000, -321.000000)" fill="#162E5C">
            <g id="Group" transform="translate(193.000000, 267.000000)">
                <g id="target_date_income_icon" transform="translate(349.000000, 54.000000)">
                    <path d="M78.3214286,82.9285714 L7.67857143,82.9285714 C5.1385,82.9285714 3.07142857,80.8615 3.07142857,78.3214286 L3.07142857,32.25 L82.9285714,32.25 L82.9285714,78.3214286 C82.9285714,80.8615 80.8615,82.9285714 78.3214286,82.9285714 M78.3214286,7.67857143 L62.9642857,7.67857143 L62.9642857,1.53571429 C62.9642857,0.686464286 62.2778214,0 61.4285714,0 C60.5793214,0 59.8928571,0.686464286 59.8928571,1.53571429 L59.8928571,15.3571429 C59.8928571,16.2063929 60.5793214,16.8928571 61.4285714,16.8928571 C62.2778214,16.8928571 62.9642857,16.2063929 62.9642857,15.3571429 L62.9642857,10.75 L78.3214286,10.75 C80.8615,10.75 82.9285714,12.8170714 82.9285714,15.3571429 L82.9285714,29.1785714 L3.07142857,29.1785714 L3.07142857,15.3571429 C3.07142857,12.8170714 5.1385,10.75 7.67857143,10.75 L19.9642857,10.75 L19.9642857,7.67857143 L7.67857143,7.67857143 C3.44460714,7.67857143 0,11.1231786 0,15.3571429 L0,78.3214286 C0,82.5553929 3.44460714,86 7.67857143,86 L78.3214286,86 C82.5553929,86 86,82.5553929 86,78.3214286 L86,15.3571429 C86,11.1231786 82.5553929,7.67857143 78.3214286,7.67857143" id="Fill-1"></path>
                    <path d="M23.5714286,16.8928571 C24.4206786,16.8928571 25.1071429,16.2063929 25.1071429,15.3571429 L25.1071429,10.75 L55.8214286,10.75 L55.8214286,7.67857143 L25.1071429,7.67857143 L25.1071429,1.53571429 C25.1071429,0.686464286 24.4206786,0 23.5714286,0 C22.7221786,0 22.0357143,0.686464286 22.0357143,1.53571429 L22.0357143,15.3571429 C22.0357143,16.2063929 22.7221786,16.8928571 23.5714286,16.8928571" id="Fill-3"></path>
                    <polygon id="Fill-5" points="22.6506143 47.9145929 24.4919357 50.3717357 28.1791857 47.60745 28.1791857 70.6431643 31.2506143 70.6431643 31.2506143 44.5360214 28.7934714 43.30745"></polygon>
                    <path d="M50.9443071,53.8535071 L48.1431643,53.7859357 L48.1431643,47.6077571 L57.35745,47.6077571 L57.35745,44.5363286 L45.0717357,44.5363286 L45.0717357,56.7851857 L50.90745,56.9249357 C53.7853786,56.9249357 56.1273429,59.2669 56.1273429,62.1448286 C56.1273429,65.0227571 53.7853786,67.3662571 50.90745,67.3662571 C48.8726286,67.3662571 47.0098071,66.1714714 46.1620929,64.3209357 L43.3686286,65.6017214 C44.7169857,68.5410786 47.6763071,70.4376857 50.90745,70.4376857 C55.4792714,70.4376857 59.1987714,66.7181857 59.1987714,62.1448286 C59.1987714,57.5730071 55.4792714,53.8535071 50.9443071,53.8535071" id="Fill-7"></path>
                </g>
            </g>
        </g>
    </g>
</svg>