<?xml version="1.0" encoding="UTF-8" standalone="no"?>
<svg width="103px" height="103px" viewBox="0 0 103 103" version="1.1" xmlns="http://www.w3.org/2000/svg" xmlns:xlink="http://www.w3.org/1999/xlink">
    <!-- Generator: Sketch 3.8.3 (29802) - http://www.bohemiancoding.com/sketch -->
    <title>wealth_protection</title>
    <desc>Created with Sketch.</desc>
    <defs></defs>
    <g id="START-SEQUENCE" stroke="none" stroke-width="1" fill="none" fill-rule="evenodd">
        <g id="portfolio_no_hover_yet" transform="translate(-1074.000000, -315.000000)" fill="#162E5C">
            <g id="wealth_protection" transform="translate(1074.000000, 315.000000)">
                <path d="M51.497425,99.61027 C6.568825,78.19657 3.427325,31.77447 3.226475,23.75592 C9.082025,22.13367 34.152225,14.77947 51.497425,3.53702 C68.842625,14.77947 93.912825,22.13367 99.768375,23.75592 C99.567525,31.77447 96.426025,78.19657 51.497425,99.61027 M102.992275,22.48902 C102.976825,21.77317 102.487575,21.16032 101.797475,20.98007 C101.493625,20.89252 71.257975,12.84822 52.393525,0.27192 C51.847625,-0.08858 51.147225,-0.08858 50.601325,0.27192 C31.742025,12.84307 1.501225,20.89252 1.197375,20.98007 C0.507275,21.16032 0.018025,21.77317 0.002575,22.48902 C-0.012875,23.05037 -0.836875,78.74247 50.812475,102.84962 C51.033925,102.94747 51.265675,102.99897 51.497425,102.99897 C51.729175,102.99897 51.960925,102.94747 52.182375,102.84962 C103.831725,78.74247 103.007725,23.05037 102.992275,22.48902" id="Fill-1"></path>
                <path d="M69.20055,51.5 C69.20055,61.25925 61.25925,69.2057 51.49485,69.2057 C41.7356,69.2057 33.7943,61.25925 33.7943,51.5 C33.7943,41.7356 41.7356,33.7943 51.49485,33.7943 C61.25925,33.7943 69.20055,41.7356 69.20055,51.5 M30.57555,51.5 C30.57555,63.036 39.95885,72.4193 51.49485,72.4193 C63.036,72.4193 72.4193,63.036 72.4193,51.5 C72.4193,39.964 63.036,30.5807 51.49485,30.5807 C39.95885,30.5807 30.57555,39.964 30.57555,51.5" id="Fill-3"></path>
                <path d="M62.76305,51.55047 C62.76305,57.76137 57.7109,62.81867 51.49485,62.81867 C45.28395,62.81867 40.2318,57.76137 40.2318,51.55047 C40.2318,45.33957 45.28395,40.28227 51.49485,40.28227 C57.7109,40.28227 62.76305,45.33957 62.76305,51.55047 M37.01305,51.55047 C37.01305,59.53812 43.51235,66.03742 51.49485,66.03742 C59.4825,66.03742 65.9818,59.53812 65.9818,51.55047 C65.9818,43.56282 59.4825,37.06352 51.49485,37.06352 C43.51235,37.06352 37.01305,43.56282 37.01305,51.55047" id="Fill-5"></path>
                <path d="M52.261685,52.48571 C52.580985,52.60931 52.843635,52.76381 53.034185,52.94921 C53.229885,53.12946 53.332885,53.37151 53.332885,53.68051 C53.332885,54.49936 52.895135,54.98861 52.004185,55.14826 L52.261685,52.48571 Z M51.015385,49.74076 C50.685785,49.59656 50.423135,49.43691 50.222285,49.24121 C50.016285,49.04551 49.918435,48.78801 49.918435,48.47901 C49.918435,48.33481 49.944185,48.20091 49.995685,48.07731 C50.036885,47.94856 50.119285,47.83526 50.222285,47.73226 C50.330435,47.63441 50.464335,47.54686 50.639435,47.46961 C50.799085,47.40266 51.005085,47.34601 51.257435,47.30481 L51.015385,49.74076 Z M49.794835,45.56926 C49.315885,45.77526 48.914185,46.04821 48.579435,46.37266 C48.254985,46.69196 48.002635,47.05246 47.827535,47.45416 C47.652435,47.87131 47.575185,48.28331 47.575185,48.70561 C47.575185,49.28241 47.667885,49.76136 47.858435,50.14246 C48.048985,50.52356 48.296185,50.84286 48.600035,51.09006 C48.909035,51.33726 49.254085,51.52781 49.630035,51.67716 C50.011135,51.82136 50.397385,51.94496 50.783635,52.05311 L50.484935,55.09676 C50.237735,55.02981 50.026585,54.95256 49.836035,54.84956 C49.655785,54.74656 49.480685,54.65901 49.326185,54.55601 C49.161385,54.46331 49.012035,54.37576 48.883285,54.30881 C48.749385,54.24701 48.620635,54.21096 48.486735,54.21096 C48.368285,54.21096 48.249835,54.24186 48.136535,54.30881 C48.028385,54.36546 47.935685,54.44271 47.873885,54.53541 L47.101385,55.64781 C47.492785,56.01861 47.966585,56.32246 48.522785,56.57481 C49.084135,56.83231 49.676385,57.00741 50.289235,57.10526 L50.134735,58.76871 L51.046285,58.76871 C51.236835,58.76871 51.391335,58.70176 51.504635,58.58846 C51.623085,58.46486 51.695185,58.33096 51.705485,58.17646 L51.803335,57.17221 C52.426485,57.12586 52.982685,56.99196 53.456485,56.77566 C53.940585,56.55421 54.352585,56.27611 54.687335,55.93106 C55.016935,55.59631 55.269285,55.19461 55.439235,54.74141 C55.614335,54.29851 55.696735,53.81956 55.696735,53.30971 C55.696735,52.96981 55.650385,52.66596 55.573135,52.40331 C55.480435,52.14581 55.367135,51.90376 55.212635,51.70291 C55.063285,51.50206 54.877885,51.31666 54.671885,51.17246 C54.465885,51.02311 54.244435,50.88921 54.007535,50.77076 C53.765485,50.65746 53.513135,50.55446 53.255635,50.46691 C53.008435,50.37421 52.750935,50.29181 52.493435,50.21971 L52.766385,47.36661 C52.936335,47.41811 53.095985,47.46961 53.235035,47.53141 C53.389535,47.59836 53.528585,47.66016 53.652185,47.71681 C53.786085,47.77346 53.899385,47.81981 54.012685,47.85586 C54.115685,47.88676 54.213535,47.90736 54.301085,47.90736 C54.424685,47.90736 54.537985,47.87646 54.635835,47.81981 C54.728535,47.75801 54.816085,47.66016 54.913935,47.52626 L55.521635,46.63016 C55.228085,46.36236 54.877885,46.09971 54.460735,45.86281 C54.043585,45.62076 53.538885,45.45596 52.962085,45.34266 L53.126885,43.76161 L52.205035,43.76161 C52.019635,43.76161 51.870285,43.81311 51.746685,43.94701 C51.628235,44.06031 51.556135,44.20451 51.545835,44.35901 L51.458285,45.26541 C50.840285,45.26541 50.284085,45.36326 49.794835,45.56926 L49.794835,45.56926 Z" id="Fill-7"></path>
            </g>
        </g>
    </g>
</svg>